<svg xmlns="http://www.w3.org/2000/svg" height="24px" viewBox="0 -960 960 960" width="24px" fill="green"><path d="M480.4-138.4Q409.435-138.4 347.02-165.3325T238.435-238.435Q192.265-284.605 165.3325-347.02T138.4-480.4Q138.4-551.365 165.3325-613.78T238.435-722.365Q284.605-768.535 347.02-795.4675T480.4-822.4Q551.365-822.4 613.78-795.4675T722.365-722.365Q768.535-676.195 795.4675-613.78T822.4-480.4Q822.4-409.435 795.4675-347.02T722.365-238.435Q676.195-192.265 613.78-165.3325T480.4-138.4ZM480.4-206.8Q594.97-206.8 674.485-286.315T754-480.4Q754-594.97 674.485-674.485T480.4-754Q365.83-754 286.315-674.485T206.8-480.4Q206.8-365.83 286.315-286.315T480.4-206.8ZM480.4-480.4Z"/></svg>